
<?xml-stylesheet type="text/css"?>
<svg xmlns="http://www.w3.org/2000/svg" viewBox="0 0 1366.35 589.73">
  <defs>
    <style>
      .cls-1 {
        opacity: 0.18;
      }

      .cls-2 {
        fill: #323956;
        opacity: 0.69;
      }

      .cls-3 {
        fill: #1e1e1e;
      }

      .cls-4 {
        fill: #202333;
      }

      .cls-5 {
        opacity: 0.71;
      }

      .cls-6 {
        fill: #121820;
      }

      .cls-7 {
        fill: #253040;
      }

      .cls-8 {
        fill: #0b111a;
      }

      .cls-9 {
        fill: #0c2c9f;
      }

      .cls-10 {
        opacity: 0.42;
      }
    </style>
  </defs>
  <title>Asset 8</title>
  <g id="Layer_2" data-name="Layer 2">
    <g id="header">
      <g id="bkg">
        <g class="cls-1">
          <g>
            <path class="cls-2" d="M291.12,142.55a1,1,0,0,1-1.34.35,1,1,0,0,1-.35-1.35,1,1,0,0,1,1.34-.35A1,1,0,0,1,291.12,142.55Z"/>
            <path class="cls-2" d="M288.81,141.19a1,1,0,0,1-1.34.35,1,1,0,0,1-.35-1.35,1,1,0,0,1,1.34-.35A1,1,0,0,1,288.81,141.19Z"/>
            <path class="cls-2" d="M286.44,139.78a1,1,0,0,1-1.34.35,1,1,0,0,1-.35-1.35,1,1,0,0,1,1.34-.35A1,1,0,0,1,286.44,139.78Z"/>
            <path class="cls-2" d="M294.25,144.4a1,1,0,0,1-1.34.35,1,1,0,0,1-.35-1.35,1,1,0,0,1,1.34-.35A1,1,0,0,1,294.25,144.4Z"/>
            <path class="cls-2" d="M297.07,146.06a1,1,0,0,1-1.34.35,1,1,0,0,1-.35-1.35,1,1,0,0,1,1.34-.35A1,1,0,0,1,297.07,146.06Z"/>
            <path class="cls-2" d="M299.81,147.69a1,1,0,0,1-1.34.35,1,1,0,0,1-.35-1.35,1,1,0,0,1,1.34-.35A1,1,0,0,1,299.81,147.69Z"/>
            <path class="cls-2" d="M302.53,149.29a1,1,0,0,1-1.34.35,1,1,0,0,1-.35-1.35,1,1,0,0,1,1.34-.35A1,1,0,0,1,302.53,149.29Z"/>
            <path class="cls-2" d="M305.14,150.83a1,1,0,0,1-1.34.35,1,1,0,0,1-.35-1.35,1,1,0,0,1,1.34-.35A1,1,0,0,1,305.14,150.83Z"/>
            <path class="cls-2" d="M307.57,152.26a1,1,0,0,1-1.34.35,1,1,0,0,1-.35-1.35,1,1,0,0,1,1.34-.35A1,1,0,0,1,307.57,152.26Z"/>
            <path class="cls-2" d="M310.18,153.81a1,1,0,0,1-1.34.35,1,1,0,0,1-.35-1.35,1,1,0,0,1,1.34-.35A1,1,0,0,1,310.18,153.81Z"/>
            <path class="cls-2" d="M312.76,155.33a1,1,0,0,1-1.34.35,1,1,0,0,1-.35-1.35,1,1,0,0,1,1.34-.35A1,1,0,0,1,312.76,155.33Z"/>
            <path class="cls-2" d="M315.39,156.89a1,1,0,0,1-1.34.35,1,1,0,0,1-.35-1.35,1,1,0,0,1,1.34-.35A1,1,0,0,1,315.39,156.89Z"/>
            <path class="cls-2" d="M317.87,158.35a1,1,0,0,1-1.34.35,1,1,0,0,1-.35-1.35,1,1,0,0,1,1.34-.35A1,1,0,0,1,317.87,158.35Z"/>
            <path class="cls-2" d="M320.33,159.81a1,1,0,0,1-1.34.35,1,1,0,0,1-.35-1.35,1,1,0,0,1,1.34-.35A1,1,0,0,1,320.33,159.81Z"/>
            <path class="cls-2" d="M322.87,161.3a1,1,0,0,1-1.34.35,1,1,0,0,1-.35-1.35,1,1,0,0,1,1.34-.35A1,1,0,0,1,322.87,161.3Z"/>
            <path class="cls-2" d="M325.4,162.8a1,1,0,0,1-1.34.35,1,1,0,0,1-.35-1.35,1,1,0,0,1,1.34-.35A1,1,0,0,1,325.4,162.8Z"/>
            <path class="cls-2" d="M328,164.35a1,1,0,0,1-1.34.35,1,1,0,0,1-.35-1.35,1,1,0,0,1,1.34-.35A1,1,0,0,1,328,164.35Z"/>
            <path class="cls-2" d="M330.53,165.83a1,1,0,0,1-1.34.35,1,1,0,0,1-.35-1.35,1,1,0,0,1,1.34-.35A1,1,0,0,1,330.53,165.83Z"/>
            <path class="cls-2" d="M333,167.29a1,1,0,0,1-1.34.35,1,1,0,0,1-.35-1.35,1,1,0,0,1,1.34-.35A1,1,0,0,1,333,167.29Z"/>
            <path class="cls-2" d="M335.59,168.82a1,1,0,0,1-1.34.35,1,1,0,0,1-.35-1.35,1,1,0,0,1,1.34-.35A1,1,0,0,1,335.59,168.82Z"/>
            <path class="cls-2" d="M338.16,170.34a1,1,0,0,1-1.34.35,1,1,0,0,1-.35-1.35,1,1,0,0,1,1.34-.35A1,1,0,0,1,338.16,170.34Z"/>
            <path class="cls-2" d="M340.83,171.91a1,1,0,0,1-1.34.35,1,1,0,0,1-.35-1.35,1,1,0,0,1,1.34-.35A1,1,0,0,1,340.83,171.91Z"/>
            <path class="cls-2" d="M343.44,173.46a1,1,0,0,1-1.34.35,1,1,0,0,1-.35-1.35,1,1,0,0,1,1.34-.35A1,1,0,0,1,343.44,173.46Z"/>
            <path class="cls-2" d="M346,175a1,1,0,0,1-1.34.35,1,1,0,0,1-.35-1.35,1,1,0,0,1,1.34-.35A1,1,0,0,1,346,175Z"/>
            <path class="cls-2" d="M348.77,176.6a1,1,0,0,1-1.34.35,1,1,0,0,1-.35-1.35,1,1,0,0,1,1.34-.35A1,1,0,0,1,348.77,176.6Z"/>
            <path class="cls-2" d="M351.3,178.1a1,1,0,0,1-1.34.35,1,1,0,0,1-.35-1.35,1,1,0,0,1,1.34-.35A1,1,0,0,1,351.3,178.1Z"/>
            <path class="cls-2" d="M354,179.67a1,1,0,0,1-1.34.35,1,1,0,0,1-.35-1.35,1,1,0,0,1,1.34-.35A1,1,0,0,1,354,179.67Z"/>
            <path class="cls-2" d="M356.74,181.31a1,1,0,0,1-1.34.35,1,1,0,0,1-.35-1.35,1,1,0,0,1,1.34-.35A1,1,0,0,1,356.74,181.31Z"/>
            <path class="cls-2" d="M359.4,182.88a1,1,0,0,1-1.34.35,1,1,0,0,1-.35-1.35,1,1,0,0,1,1.34-.35A1,1,0,0,1,359.4,182.88Z"/>
            <path class="cls-2" d="M361.83,184.32a1,1,0,0,1-1.34.35,1,1,0,0,1-.35-1.35,1,1,0,0,1,1.34-.35A1,1,0,0,1,361.83,184.32Z"/>
            <path class="cls-2" d="M364.17,185.7a1,1,0,0,1-1.34.35,1,1,0,0,1-.35-1.35,1,1,0,0,1,1.34-.35A1,1,0,0,1,364.17,185.7Z"/>
            <path class="cls-2" d="M366.62,187.15a1,1,0,0,1-1.34.35,1,1,0,0,1-.35-1.35,1,1,0,0,1,1.34-.35A1,1,0,0,1,366.62,187.15Z"/>
            <path class="cls-2" d="M369,188.56a1,1,0,0,1-1.34.35,1,1,0,0,1-.35-1.35,1,1,0,0,1,1.34-.35A1,1,0,0,1,369,188.56Z"/>
            <path class="cls-2" d="M371.57,190.07a1,1,0,0,1-1.34.35,1,1,0,0,1-.35-1.35,1,1,0,0,1,1.34-.35A1,1,0,0,1,371.57,190.07Z"/>
            <path class="cls-2" d="M374.12,191.58a1,1,0,0,1-1.34.35,1,1,0,0,1-.35-1.35,1,1,0,0,1,1.34-.35A1,1,0,0,1,374.12,191.58Z"/>
            <path class="cls-2" d="M376.14,193.34a1,1,0,0,1-1.33-.37,1,1,0,0,1,.37-1.34,1,1,0,0,1,1.33.37A1,1,0,0,1,376.14,193.34Z"/>
            <path class="cls-2" d="M378.67,194.84a1,1,0,0,1-1.33-.37,1,1,0,0,1,.37-1.34,1,1,0,0,1,1.33.37A1,1,0,0,1,378.67,194.84Z"/>
            <path class="cls-2" d="M381.66,196.6a1,1,0,0,1-1.33-.37,1,1,0,0,1,.37-1.34,1,1,0,0,1,1.33.37A1,1,0,0,1,381.66,196.6Z"/>
            <path class="cls-2" d="M384.6,198.34a1,1,0,0,1-1.33-.37,1,1,0,0,1,.37-1.34A1,1,0,0,1,385,197,1,1,0,0,1,384.6,198.34Z"/>
            <path class="cls-2" d="M387.18,199.86a1,1,0,0,1-1.33-.37,1,1,0,0,1,.37-1.34,1,1,0,0,1,1.33.37A1,1,0,0,1,387.18,199.86Z"/>
            <path class="cls-2" d="M390,201.54a1,1,0,0,1-1.33-.37,1,1,0,0,1,.37-1.34,1,1,0,0,1,1.33.37A1,1,0,0,1,390,201.54Z"/>
            <path class="cls-2" d="M393,203.28a1,1,0,0,1-1.33-.37,1,1,0,0,1,.37-1.34,1,1,0,0,1,1.33.37A1,1,0,0,1,393,203.28Z"/>
            <path class="cls-2" d="M396,205a1,1,0,0,1-1.33-.37,1,1,0,0,1,.37-1.34,1,1,0,0,1,1.33.37A1,1,0,0,1,396,205Z"/>
            <path class="cls-2" d="M398.66,206.64a1,1,0,0,1-1.33-.37,1,1,0,0,1,.37-1.34,1,1,0,0,1,1.33.37A1,1,0,0,1,398.66,206.64Z"/>
            <path class="cls-2" d="M401.24,208.17a1,1,0,0,1-1.33-.37,1,1,0,0,1,.37-1.34,1,1,0,0,1,1.33.37A1,1,0,0,1,401.24,208.17Z"/>
            <path class="cls-2" d="M403.84,209.7a1,1,0,0,1-1.33-.37,1,1,0,0,1,.37-1.34,1,1,0,0,1,1.33.37A1,1,0,0,1,403.84,209.7Z"/>
            <path class="cls-2" d="M406.6,211.33a1,1,0,0,1-1.33-.37,1,1,0,0,1,.37-1.34A1,1,0,0,1,407,210,1,1,0,0,1,406.6,211.33Z"/>
            <path class="cls-2" d="M409.27,212.91a1,1,0,0,1-1.33-.37,1,1,0,0,1,.37-1.34,1,1,0,0,1,1.33.37A1,1,0,0,1,409.27,212.91Z"/>
            <path class="cls-2" d="M412,214.53a1,1,0,0,1-1.33-.37,1,1,0,0,1,.37-1.34,1,1,0,0,1,1.33.37A1,1,0,0,1,412,214.53Z"/>
            <path class="cls-2" d="M414.84,216.2a1,1,0,0,1-1.33-.37,1,1,0,0,1,.37-1.34,1,1,0,0,1,1.33.37A1,1,0,0,1,414.84,216.2Z"/>
            <path class="cls-2" d="M417.3,217.66a1,1,0,0,1-1.33-.37,1,1,0,0,1,.37-1.34,1,1,0,0,1,1.33.37A1,1,0,0,1,417.3,217.66Z"/>
            <path class="cls-2" d="M419.79,219.13a1,1,0,0,1-1.33-.37,1,1,0,0,1,.37-1.34,1,1,0,0,1,1.33.37A1,1,0,0,1,419.79,219.13Z"/>
            <path class="cls-2" d="M422.25,220.58a1,1,0,0,1-1.33-.37,1,1,0,0,1,.37-1.34,1,1,0,0,1,1.33.37A1,1,0,0,1,422.25,220.58Z"/>
          </g>
          <circle class="cls-2" cx="429.24" cy="224.25" r="0.93" transform="translate(18.72 481.18) rotate(-59.62)"/>
          <circle class="cls-2" cx="427.05" cy="222.96" r="0.93" transform="translate(18.75 478.66) rotate(-59.63)"/>
          <circle class="cls-2" cx="424.78" cy="221.63" r="0.93" transform="matrix(0.51, -0.86, 0.86, 0.51, 18.77, 476.03)"/>
          <circle class="cls-2" cx="432.23" cy="226" r="0.93" transform="translate(18.7 484.64) rotate(-59.63)"/>
          <circle class="cls-2" cx="434.93" cy="227.58" r="0.93" transform="translate(18.66 487.73) rotate(-59.62)"/>
          <circle class="cls-2" cx="437.55" cy="229.12" r="0.93" transform="translate(18.64 490.76) rotate(-59.63)"/>
          <circle class="cls-2" cx="440.15" cy="230.64" r="0.93" transform="translate(18.61 493.75) rotate(-59.63)"/>
          <circle class="cls-2" cx="442.64" cy="232.1" r="0.93" transform="translate(18.57 496.61) rotate(-59.62)"/>
          <circle class="cls-2" cx="444.95" cy="233.46" r="0.93" transform="translate(18.55 499.29) rotate(-59.63)"/>
          <circle class="cls-2" cx="447.45" cy="234.92" r="0.93" transform="translate(18.52 502.17) rotate(-59.63)"/>
          <circle class="cls-2" cx="449.91" cy="236.36" r="0.93" transform="translate(18.5 505.01) rotate(-59.63)"/>
          <circle class="cls-2" cx="452.42" cy="237.83" r="0.93" transform="translate(18.47 507.9) rotate(-59.63)"/>
          <circle class="cls-2" cx="454.79" cy="239.22" r="0.93" transform="translate(18.44 510.63) rotate(-59.63)"/>
          <circle class="cls-2" cx="457.14" cy="240.6" r="0.93" transform="translate(18.41 513.34) rotate(-59.63)"/>
          <circle class="cls-2" cx="459.56" cy="242.02" r="0.93" transform="translate(18.38 516.12) rotate(-59.62)"/>
          <circle class="cls-2" cx="461.98" cy="243.44" r="0.93" transform="translate(18.36 518.92) rotate(-59.63)"/>
          <circle class="cls-2" cx="464.48" cy="244.9" r="0.93" transform="translate(18.33 521.8) rotate(-59.63)"/>
          <circle class="cls-2" cx="466.88" cy="246.31" r="0.93" transform="translate(18.31 524.56) rotate(-59.63)"/>
          <circle class="cls-2" cx="469.24" cy="247.69" r="0.93" transform="translate(18.28 527.29) rotate(-59.63)"/>
          <circle class="cls-2" cx="471.71" cy="249.14" r="0.93" transform="translate(18.25 530.13) rotate(-59.63)"/>
          <circle class="cls-2" cx="474.16" cy="250.58" r="0.93" transform="translate(18.22 532.96) rotate(-59.63)"/>
          <circle class="cls-2" cx="476.71" cy="252.07" r="0.93" transform="translate(18.19 535.9) rotate(-59.63)"/>
          <circle class="cls-2" cx="479.21" cy="253.53" r="0.93" transform="translate(18.16 538.76) rotate(-59.62)"/>
          <circle class="cls-2" cx="481.66" cy="254.97" r="0.93" transform="translate(18.14 541.6) rotate(-59.63)"/>
          <circle class="cls-2" cx="484.29" cy="256.52" r="0.93" transform="translate(18.11 544.63) rotate(-59.63)"/>
          <circle class="cls-2" cx="486.71" cy="257.93" r="0.93" transform="translate(18.07 547.4) rotate(-59.62)"/>
          <circle class="cls-2" cx="489.24" cy="259.42" r="0.93" transform="translate(18.05 550.34) rotate(-59.63)"/>
          <circle class="cls-2" cx="491.91" cy="260.98" r="0.93" transform="translate(18.02 553.41) rotate(-59.63)"/>
          <circle class="cls-2" cx="494.44" cy="262.46" r="0.93" transform="translate(17.99 556.32) rotate(-59.62)"/>
          <circle class="cls-2" cx="496.76" cy="263.82" r="0.93" transform="translate(17.97 559) rotate(-59.63)"/>
          <circle class="cls-2" cx="499" cy="265.13" r="0.93" transform="translate(17.94 561.58) rotate(-59.63)"/>
          <circle class="cls-2" cx="501.34" cy="266.51" r="0.93" transform="translate(17.91 564.27) rotate(-59.62)"/>
          <circle class="cls-2" cx="503.63" cy="267.85" r="0.93" transform="translate(17.89 566.91) rotate(-59.63)"/>
        </g>
        <g>
          <g id="CIRCLES" class="cls-1">
            <g>
              <path class="cls-2" d="M566.48,367.59a1,1,0,0,1-1.34.35,1,1,0,0,1-.35-1.35,1,1,0,0,1,1.34-.35A1,1,0,0,1,566.48,367.59Z"/>
              <path class="cls-2" d="M564.17,366.23a1,1,0,0,1-1.34.35,1,1,0,0,1-.35-1.35,1,1,0,0,1,1.34-.35A1,1,0,0,1,564.17,366.23Z"/>
              <path class="cls-2" d="M561.8,364.82a1,1,0,0,1-1.34.35,1,1,0,0,1-.35-1.35,1,1,0,0,1,1.34-.35A1,1,0,0,1,561.8,364.82Z"/>
              <path class="cls-2" d="M569.61,369.44a1,1,0,0,1-1.34.35,1,1,0,0,1-.35-1.35,1,1,0,0,1,1.34-.35A1,1,0,0,1,569.61,369.44Z"/>
              <path class="cls-2" d="M572.43,371.1a1,1,0,0,1-1.34.35,1,1,0,0,1-.35-1.35,1,1,0,0,1,1.34-.35A1,1,0,0,1,572.43,371.1Z"/>
              <path class="cls-2" d="M575.18,372.73a1,1,0,0,1-1.34.35,1,1,0,0,1-.35-1.35,1,1,0,0,1,1.34-.35A1,1,0,0,1,575.18,372.73Z"/>
              <path class="cls-2" d="M577.89,374.33a1,1,0,0,1-1.34.35,1,1,0,0,1-.35-1.35,1,1,0,0,1,1.34-.35A1,1,0,0,1,577.89,374.33Z"/>
              <path class="cls-2" d="M580.5,375.87a1,1,0,0,1-1.34.35,1,1,0,0,1-.35-1.35,1,1,0,0,1,1.34-.35A1,1,0,0,1,580.5,375.87Z"/>
              <path class="cls-2" d="M582.93,377.3a1,1,0,0,1-1.34.35,1,1,0,0,1-.35-1.35,1,1,0,0,1,1.34-.35A1,1,0,0,1,582.93,377.3Z"/>
              <path class="cls-2" d="M585.54,378.85a1,1,0,0,1-1.34.35,1,1,0,0,1-.35-1.35,1,1,0,0,1,1.34-.35A1,1,0,0,1,585.54,378.85Z"/>
              <path class="cls-2" d="M588.12,380.37a1,1,0,0,1-1.34.35,1,1,0,0,1-.35-1.35,1,1,0,0,1,1.34-.35A1,1,0,0,1,588.12,380.37Z"/>
              <path class="cls-2" d="M590.75,381.92a1,1,0,0,1-1.34.35,1,1,0,0,1-.35-1.35,1,1,0,0,1,1.34-.35A1,1,0,0,1,590.75,381.92Z"/>
              <path class="cls-2" d="M593.23,383.39a1,1,0,0,1-1.34.35,1,1,0,0,1-.35-1.35,1,1,0,0,1,1.34-.35A1,1,0,0,1,593.23,383.39Z"/>
              <path class="cls-2" d="M595.7,384.85a1,1,0,0,1-1.34.35,1,1,0,0,1-.35-1.35,1,1,0,0,1,1.34-.35A1,1,0,0,1,595.7,384.85Z"/>
              <path class="cls-2" d="M598.23,386.34a1,1,0,0,1-1.34.35,1,1,0,0,1-.35-1.35,1,1,0,0,1,1.34-.35A1,1,0,0,1,598.23,386.34Z"/>
              <path class="cls-2" d="M600.77,387.84a1,1,0,0,1-1.34.35,1,1,0,0,1-.35-1.35,1,1,0,0,1,1.34-.35A1,1,0,0,1,600.77,387.84Z"/>
              <path class="cls-2" d="M603.38,389.38a1,1,0,0,1-1.34.35,1,1,0,0,1-.35-1.35A1,1,0,0,1,603,388,1,1,0,0,1,603.38,389.38Z"/>
              <path class="cls-2" d="M605.89,390.87a1,1,0,0,1-1.34.35,1,1,0,0,1-.35-1.35,1,1,0,0,1,1.34-.35A1,1,0,0,1,605.89,390.87Z"/>
              <path class="cls-2" d="M608.36,392.33a1,1,0,0,1-1.34.35,1,1,0,0,1-.35-1.35A1,1,0,0,1,608,391,1,1,0,0,1,608.36,392.33Z"/>
              <path class="cls-2" d="M610.95,393.86a1,1,0,0,1-1.34.35,1,1,0,0,1-.35-1.35,1,1,0,0,1,1.34-.35A1,1,0,0,1,610.95,393.86Z"/>
              <path class="cls-2" d="M613.52,395.38a1,1,0,0,1-1.34.35,1,1,0,0,1-.35-1.35,1,1,0,0,1,1.34-.35A1,1,0,0,1,613.52,395.38Z"/>
              <path class="cls-2" d="M616.19,397a1,1,0,0,1-1.34.35,1,1,0,0,1-.35-1.35,1,1,0,0,1,1.34-.35A1,1,0,0,1,616.19,397Z"/>
              <path class="cls-2" d="M618.8,398.5a1,1,0,0,1-1.34.35,1,1,0,0,1-.35-1.35,1,1,0,0,1,1.34-.35A1,1,0,0,1,618.8,398.5Z"/>
              <path class="cls-2" d="M621.38,400a1,1,0,0,1-1.34.35,1,1,0,0,1-.35-1.35,1,1,0,0,1,1.34-.35A1,1,0,0,1,621.38,400Z"/>
              <path class="cls-2" d="M624.13,401.64a1,1,0,0,1-1.34.35,1,1,0,0,1-.35-1.35,1,1,0,0,1,1.34-.35A1,1,0,0,1,624.13,401.64Z"/>
              <path class="cls-2" d="M626.66,403.14a1,1,0,0,1-1.34.35,1,1,0,0,1-.35-1.35,1,1,0,0,1,1.34-.35A1,1,0,0,1,626.66,403.14Z"/>
              <path class="cls-2" d="M629.32,404.71a1,1,0,0,1-1.34.35,1,1,0,0,1-.35-1.35,1,1,0,0,1,1.34-.35A1,1,0,0,1,629.32,404.71Z"/>
              <path class="cls-2" d="M632.11,406.35a1,1,0,0,1-1.34.35,1,1,0,0,1-.35-1.35,1,1,0,0,1,1.34-.35A1,1,0,0,1,632.11,406.35Z"/>
            </g>
            <circle class="cls-2" cx="957.62" cy="352.36" r="0.93" transform="translate(169.39 1000.35) rotate(-59.62)"/>
            <circle class="cls-2" cx="955.42" cy="351.07" r="0.93" transform="translate(169.44 997.84) rotate(-59.63)"/>
            <circle class="cls-2" cx="953.15" cy="349.74" r="0.93" transform="translate(169.44 995.2) rotate(-59.62)"/>
            <circle class="cls-2" cx="960.61" cy="354.11" r="0.93" transform="translate(169.38 1003.82) rotate(-59.63)"/>
            <circle class="cls-2" cx="963.3" cy="355.69" r="0.93" transform="translate(169.33 1006.9) rotate(-59.62)"/>
            <circle class="cls-2" cx="965.93" cy="357.23" r="0.93" transform="translate(169.32 1009.95) rotate(-59.63)"/>
            <circle class="cls-2" cx="968.52" cy="358.75" r="0.93" transform="translate(169.29 1012.94) rotate(-59.63)"/>
            <circle class="cls-2" cx="971.01" cy="360.21" r="0.93" transform="translate(169.24 1015.79) rotate(-59.62)"/>
            <circle class="cls-2" cx="973.33" cy="361.57" r="0.93" transform="translate(169.23 1018.48) rotate(-59.63)"/>
            <circle class="cls-2" cx="975.82" cy="363.03" r="0.93" transform="translate(169.21 1021.35) rotate(-59.63)"/>
            <circle class="cls-2" cx="978.29" cy="364.48" r="0.93" transform="translate(169.18 1024.2) rotate(-59.63)"/>
            <circle class="cls-2" cx="980.8" cy="365.95" r="0.93" transform="translate(169.15 1027.09) rotate(-59.63)"/>
            <circle class="cls-2" cx="983.17" cy="367.33" r="0.93" transform="translate(169.12 1029.82) rotate(-59.63)"/>
            <circle class="cls-2" cx="985.52" cy="368.71" r="0.93" transform="translate(169.1 1032.53) rotate(-59.63)"/>
            <circle class="cls-2" cx="987.94" cy="370.13" r="0.93" transform="translate(169.05 1035.29) rotate(-59.62)"/>
            <circle class="cls-2" cx="990.36" cy="371.55" r="0.93" transform="translate(169.04 1038.11) rotate(-59.63)"/>
            <circle class="cls-2" cx="992.86" cy="373.01" r="0.93" transform="translate(169.01 1040.98) rotate(-59.63)"/>
            <circle class="cls-2" cx="995.26" cy="374.42" r="0.93" transform="translate(168.99 1043.75) rotate(-59.63)"/>
            <circle class="cls-2" cx="997.62" cy="375.8" r="0.93" transform="translate(168.97 1046.48) rotate(-59.63)"/>
            <circle class="cls-2" cx="1000.08" cy="377.25" r="0.93" transform="translate(168.93 1049.31) rotate(-59.63)"/>
            <circle class="cls-2" cx="1002.54" cy="378.69" r="0.93" transform="translate(168.9 1052.14) rotate(-59.63)"/>
            <circle class="cls-2" cx="1005.09" cy="380.18" r="0.93" transform="translate(168.88 1055.08) rotate(-59.63)"/>
            <circle class="cls-2" cx="1007.58" cy="381.65" r="0.93" transform="translate(168.83 1057.94) rotate(-59.62)"/>
            <circle class="cls-2" cx="1010.04" cy="383.08" r="0.93" transform="translate(168.82 1060.79) rotate(-59.63)"/>
            <circle class="cls-2" cx="1012.67" cy="384.63" r="0.93" transform="translate(168.79 1063.82) rotate(-59.63)"/>
            <circle class="cls-2" cx="1015.08" cy="386.04" r="0.93" transform="translate(168.74 1066.58) rotate(-59.62)"/>
            <circle class="cls-2" cx="1017.62" cy="387.53" r="0.93" transform="translate(168.73 1069.53) rotate(-59.63)"/>
            <circle class="cls-2" cx="1020.28" cy="389.09" r="0.93" transform="translate(168.7 1072.6) rotate(-59.63)"/>
            <circle class="cls-2" cx="1022.82" cy="390.58" r="0.93" transform="translate(168.66 1075.49) rotate(-59.62)"/>
            <circle class="cls-2" cx="1025.14" cy="391.93" r="0.93" transform="translate(168.65 1078.19) rotate(-59.63)"/>
            <circle class="cls-2" cx="1027.37" cy="393.24" r="0.93" transform="translate(168.62 1080.76) rotate(-59.63)"/>
            <circle class="cls-2" cx="1029.72" cy="394.62" r="0.93" transform="translate(168.58 1083.44) rotate(-59.62)"/>
            <circle class="cls-2" cx="1032" cy="395.96" r="0.93" transform="translate(168.57 1086.1) rotate(-59.63)"/>
            <circle class="cls-2" cx="1039.15" cy="400.3" r="0.93" transform="translate(168.34 1094.39) rotate(-59.62)"/>
            <circle class="cls-2" cx="1036.95" cy="399.01" r="0.93" transform="translate(168.38 1091.88) rotate(-59.63)"/>
            <circle class="cls-2" cx="1034.68" cy="397.68" r="0.93" transform="translate(168.39 1089.24) rotate(-59.62)"/>
            <circle class="cls-2" cx="1042.14" cy="402.05" r="0.93" transform="translate(168.33 1097.86) rotate(-59.63)"/>
            <circle class="cls-2" cx="1044.83" cy="403.63" r="0.93" transform="translate(168.28 1100.94) rotate(-59.62)"/>
            <circle class="cls-2" cx="1047.46" cy="405.17" r="0.93" transform="translate(168.27 1103.99) rotate(-59.63)"/>
            <circle class="cls-2" cx="1050.05" cy="406.69" r="0.93" transform="translate(168.24 1106.98) rotate(-59.63)"/>
            <circle class="cls-2" cx="1052.54" cy="408.15" r="0.93" transform="translate(168.19 1109.82) rotate(-59.62)"/>
            <circle class="cls-2" cx="1054.86" cy="409.5" r="0.93" transform="translate(168.18 1112.52) rotate(-59.63)"/>
            <circle class="cls-2" cx="1057.35" cy="410.97" r="0.93" transform="translate(168.15 1115.39) rotate(-59.63)"/>
            <circle class="cls-2" cx="1059.82" cy="412.41" r="0.93" transform="translate(168.13 1118.23) rotate(-59.63)"/>
            <circle class="cls-2" cx="1062.33" cy="413.88" r="0.93" transform="translate(168.1 1121.12) rotate(-59.63)"/>
            <circle class="cls-2" cx="1064.7" cy="415.27" r="0.93" transform="translate(168.07 1123.86) rotate(-59.63)"/>
            <circle class="cls-2" cx="1067.05" cy="416.65" r="0.93" transform="translate(168.04 1126.57) rotate(-59.63)"/>
            <circle class="cls-2" cx="1069.47" cy="418.07" r="0.93" transform="translate(168 1129.33) rotate(-59.62)"/>
            <circle class="cls-2" cx="1071.89" cy="419.49" r="0.93" transform="translate(167.99 1132.15) rotate(-59.63)"/>
            <circle class="cls-2" cx="1074.38" cy="420.95" r="0.93" transform="translate(167.96 1135.02) rotate(-59.63)"/>
            <circle class="cls-2" cx="1076.79" cy="422.36" r="0.93" transform="translate(167.93 1137.79) rotate(-59.63)"/>
            <circle class="cls-2" cx="1079.15" cy="423.74" r="0.93" transform="translate(167.92 1140.52) rotate(-59.63)"/>
            <circle class="cls-2" cx="1081.61" cy="425.19" r="0.93" transform="translate(167.88 1143.35) rotate(-59.63)"/>
            <circle class="cls-2" cx="1084.07" cy="426.62" r="0.93" transform="translate(167.85 1146.18) rotate(-59.63)"/>
            <circle class="cls-2" cx="1086.62" cy="428.12" r="0.93" transform="translate(167.82 1149.12) rotate(-59.63)"/>
          </g>
          <rect id="BACKGROUND" class="cls-3" width="1366" height="589.73"/>
          <polygon class="cls-4" points="78.41 394.87 131.41 363.7 185.07 394.87 131.74 425.7 78.41 394.87"/>
          <polygon class="cls-4" points="142.41 433.53 195.41 402.37 249.07 433.53 195.74 464.37 142.41 433.53"/>
          <polygon class="cls-4" points="207.16 394.87 260.16 363.7 313.82 394.87 260.49 425.7 207.16 394.87"/>
          <polygon class="cls-4" points="781.16 174.22 887.48 111.7 995.13 174.22 888.14 236.07 781.16 174.22"/>
          <polygon class="cls-4" points="905.07 244.43 1011.39 181.9 1119.05 244.43 1012.06 306.28 905.07 244.43"/>
          <polygon class="cls-4" points="1028.46 314.07 1134.78 251.55 1242.44 314.07 1135.45 375.93 1028.46 314.07"/>
          <polygon class="cls-4" points="1152.38 387.41 1258.7 324.88 1366.35 387.41 1259.37 449.26 1152.38 387.41"/>
          <polygon class="cls-4" points="668.07 387.41 774.39 324.88 882.05 387.41 775.06 449.26 668.07 387.41"/>
          <polygon class="cls-4" points="549.07 457.22 655.39 394.7 763.05 457.22 656.06 519.07 549.07 457.22"/>
          <polygon class="cls-4" points="131.74 162.87 184.74 131.7 238.41 162.87 185.07 193.7 131.74 162.87"/>
          <polygon class="cls-4" points="198.41 124.49 251.41 93.32 305.07 124.49 251.74 155.32 198.41 124.49"/>
          <polygon class="cls-4" points="132.99 85.24 185.99 54.07 239.66 85.24 186.32 116.07 132.99 85.24"/>
          <polygon class="cls-4" points="195.74 48.41 248.74 17.24 302.41 48.41 249.07 79.24 195.74 48.41"/>
          <!--<g id="SERVER" class="cls-5 server">-->
            <!--<polygon class="cls-6" points="993.43 285.18 1080.39 234.97 1080.39 62.84 993.43 113.05 993.43 285.18"/>-->
            <!--<polygon class="cls-6" points="993.43 285.18 1080.39 234.97 1080.39 62.84 993.43 113.05 993.43 285.18"/>-->
            <!--<polygon class="cls-7" points="1001.71 117.83 1072.11 77.19 1072.11 230.19 1001.71 270.83 1001.71 117.83"/>-->
            <!--<polygon class="cls-8" points="993.43 285.18 943.74 256.49 943.74 84.36 993.43 113.05 993.43 285.18"/>-->
            <!--<polygon class="cls-7" points="943.74 84.36 1030.69 34.15 1080.39 62.84 993.43 113.05 943.74 84.36"/>-->
            <!--<g id="SERVER_POWER">-->
              <!--<path class="cls-9" d="M987.08,200.84a3.85,3.85,0,0,0-1.61-3.07h0c-.89-.51-1.61,0-1.61,1.22v64.44a3.84,3.84,0,0,0,1.61,3.07h0c.89.51,1.61,0,1.61-1.21Z"/>-->
              <!--<path class="cls-9" d="M978.29,195.77a3.85,3.85,0,0,0-1.61-3.07h0c-.89-.51-1.61,0-1.61,1.21v64.44a3.85,3.85,0,0,0,1.61,3.07h0c.89.51,1.61,0,1.61-1.22Z"/>-->
              <!--<path class="cls-9" d="M969.5,190.69a3.84,3.84,0,0,0-1.61-3.07h0c-.89-.51-1.61,0-1.61,1.21v64.44a3.85,3.85,0,0,0,1.61,3.07h0c.89.51,1.61,0,1.61-1.22Z"/>-->
              <!--<path class="cls-9" d="M960.71,185.62a3.85,3.85,0,0,0-1.61-3.07h0c-.89-.51-1.61,0-1.61,1.21v64.44a3.84,3.84,0,0,0,1.61,3.07h0c.89.51,1.61,0,1.61-1.21Z"/>-->
              <!--<path class="cls-9" d="M951.92,180.55a3.84,3.84,0,0,0-1.61-3.07h0c-.89-.51-1.61,0-1.61,1.21v64.44a3.85,3.85,0,0,0,1.61,3.07h0c.89.51,1.61,0,1.61-1.22Z"/>-->
            <!--</g>-->
            <!--<g class="cls-10">-->
              <!--<g>-->
                <!--<polygon points="1017.63 137.32 1017.63 126.8 1026.74 121.53 1026.74 132.06 1017.63 137.32"/>-->
                <!--<polygon points="1028.03 131.31 1028.03 120.78 1037.14 115.52 1037.14 126.04 1028.03 131.31"/>-->
                <!--<polygon points="1038.43 125.29 1038.43 114.77 1047.54 109.5 1047.54 120.03 1038.43 125.29"/>-->
                <!--<polygon points="1048.83 119.27 1048.83 108.75 1057.94 103.49 1057.94 114.01 1048.83 119.27"/>-->
                <!--<polygon points="1059.23 113.26 1059.23 102.73 1068.35 97.47 1068.35 108 1059.23 113.26"/>-->
                <!--<path d="M1012.51,135.45c0-2.45-1.49-3.58-3.33-2.52a8,8,0,0,0-3.33,6.36c0,2.45,1.49,3.58,3.33,2.52A8,8,0,0,0,1012.51,135.45Z"/>-->
              <!--</g>-->
              <!--<g>-->
                <!--<polygon points="1017.63 150.01 1017.63 139.49 1026.74 134.23 1026.74 144.75 1017.63 150.01"/>-->
                <!--<polygon points="1028.03 144 1028.03 133.47 1037.14 128.21 1037.14 138.74 1028.03 144"/>-->
                <!--<polygon points="1038.43 137.98 1038.43 127.46 1047.54 122.19 1047.54 132.72 1038.43 137.98"/>-->
                <!--<polygon points="1048.83 131.97 1048.83 121.44 1057.94 116.18 1057.94 126.7 1048.83 131.97"/>-->
                <!--<polygon points="1059.23 125.95 1059.23 115.43 1068.35 110.16 1068.35 120.69 1059.23 125.95"/>-->
                <!--<path d="M1012.51,148.14c0-2.45-1.49-3.58-3.33-2.52a8,8,0,0,0-3.33,6.36c0,2.45,1.49,3.58,3.33,2.52A8,8,0,0,0,1012.51,148.14Z"/>-->
              <!--</g>-->
              <!--<g>-->
                <!--<polygon points="1017.63 169.94 1017.63 159.41 1026.74 154.15 1026.74 164.68 1017.63 169.94"/>-->
                <!--<polygon points="1028.03 163.92 1028.03 153.4 1037.14 148.13 1037.14 158.66 1028.03 163.92"/>-->
                <!--<polygon points="1038.43 157.91 1038.43 147.38 1047.54 142.12 1047.54 152.64 1038.43 157.91"/>-->
                <!--<polygon points="1048.83 151.89 1048.83 141.37 1057.94 136.1 1057.94 146.63 1048.83 151.89"/>-->
                <!--<polygon points="1059.23 145.88 1059.23 135.35 1068.35 130.09 1068.35 140.61 1059.23 145.88"/>-->
                <!--<path d="M1012.51,168.07c0-2.45-1.49-3.58-3.33-2.52a8,8,0,0,0-3.33,6.36c0,2.45,1.49,3.58,3.33,2.52A8,8,0,0,0,1012.51,168.07Z"/>-->
              <!--</g>-->
              <!--<g>-->
                <!--<polygon points="1017.63 182.63 1017.63 172.11 1026.74 166.84 1026.74 177.37 1017.63 182.63"/>-->
                <!--<polygon points="1028.03 176.61 1028.03 166.09 1037.14 160.83 1037.14 171.35 1028.03 176.61"/>-->
                <!--<polygon points="1038.43 170.6 1038.43 160.07 1047.54 154.81 1047.54 165.34 1038.43 170.6"/>-->
                <!--<polygon points="1048.83 164.58 1048.83 154.06 1057.94 148.8 1057.94 159.32 1048.83 164.58"/>-->
                <!--<polygon points="1059.23 158.57 1059.23 148.04 1068.35 142.78 1068.35 153.31 1059.23 158.57"/>-->
                <!--<path d="M1012.51,180.76c0-2.45-1.49-3.58-3.33-2.52a8,8,0,0,0-3.33,6.36c0,2.45,1.49,3.58,3.33,2.52A8,8,0,0,0,1012.51,180.76Z"/>-->
              <!--</g>-->
              <!--<g>-->
                <!--<polygon points="1017.63 202.55 1017.63 192.03 1026.74 186.77 1026.74 197.29 1017.63 202.55"/>-->
                <!--<polygon points="1028.03 196.54 1028.03 186.01 1037.14 180.75 1037.14 191.28 1028.03 196.54"/>-->
                <!--<polygon points="1038.43 190.52 1038.43 180 1047.54 174.74 1047.54 185.26 1038.43 190.52"/>-->
                <!--<polygon points="1048.83 184.51 1048.83 173.98 1057.94 168.72 1057.94 179.25 1048.83 184.51"/>-->
                <!--<polygon points="1059.23 178.49 1059.23 167.97 1068.35 162.71 1068.35 173.23 1059.23 178.49"/>-->
                <!--<path d="M1012.51,200.68c0-2.45-1.49-3.58-3.33-2.52a8,8,0,0,0-3.33,6.36c0,2.45,1.49,3.58,3.33,2.52A8,8,0,0,0,1012.51,200.68Z"/>-->
              <!--</g>-->
              <!--<g>-->
                <!--<polygon points="1017.63 215.25 1017.63 204.72 1026.74 199.46 1026.74 209.99 1017.63 215.25"/>-->
                <!--<polygon points="1028.03 209.23 1028.03 198.71 1037.14 193.44 1037.14 203.97 1028.03 209.23"/>-->
                <!--<polygon points="1038.43 203.22 1038.43 192.69 1047.54 187.43 1047.54 197.95 1038.43 203.22"/>-->
                <!--<polygon points="1048.83 197.2 1048.83 186.68 1057.94 181.41 1057.94 191.94 1048.83 197.2"/>-->
                <!--<polygon points="1059.23 191.19 1059.23 180.66 1068.35 175.4 1068.35 185.92 1059.23 191.19"/>-->
                <!--<path d="M1012.51,213.38c0-2.45-1.49-3.58-3.33-2.52a8,8,0,0,0-3.33,6.36c0,2.45,1.49,3.58,3.33,2.52A8,8,0,0,0,1012.51,213.38Z"/>-->
              <!--</g>-->
              <!--<g>-->
                <!--<polygon points="1017.63 234.51 1017.63 223.98 1026.74 218.72 1026.74 229.25 1017.63 234.51"/>-->
                <!--<polygon points="1028.03 228.5 1028.03 217.97 1037.14 212.71 1037.14 223.23 1028.03 228.5"/>-->
                <!--<polygon points="1038.43 222.48 1038.43 211.95 1047.54 206.69 1047.54 217.22 1038.43 222.48"/>-->
                <!--<polygon points="1048.83 216.46 1048.83 205.94 1057.94 200.68 1057.94 211.2 1048.83 216.46"/>-->
                <!--<polygon points="1059.23 210.45 1059.23 199.92 1068.35 194.66 1068.35 205.18 1059.23 210.45"/>-->
                <!--<path d="M1012.51,232.64c0-2.45-1.49-3.58-3.33-2.51a8,8,0,0,0-3.33,6.36c0,2.45,1.49,3.58,3.33,2.52A8,8,0,0,0,1012.51,232.64Z"/>-->
              <!--</g>-->
              <!--<g>-->
                <!--<polygon points="1017.63 247.2 1017.63 236.68 1026.74 231.41 1026.74 241.94 1017.63 247.2"/>-->
                <!--<polygon points="1028.03 241.19 1028.03 230.66 1037.14 225.4 1037.14 235.92 1028.03 241.19"/>-->
                <!--<polygon points="1038.43 235.17 1038.43 224.65 1047.54 219.38 1047.54 229.91 1038.43 235.17"/>-->
                <!--<polygon points="1048.83 229.15 1048.83 218.63 1057.94 213.37 1057.94 223.89 1048.83 229.15"/>-->
                <!--<polygon points="1059.23 223.14 1059.23 212.62 1068.35 207.35 1068.35 217.88 1059.23 223.14"/>-->
                <!--<path d="M1012.51,245.33c0-2.45-1.49-3.58-3.33-2.52a8,8,0,0,0-3.33,6.36c0,2.45,1.49,3.58,3.33,2.52A8,8,0,0,0,1012.51,245.33Z"/>-->
              <!--</g>-->
            <!--</g>-->
          <!--</g>-->
        </g>
      </g>
    </g>
  </g>
</svg>
