<svg xmlns="http://www.w3.org/2000/svg" viewBox="0 0 314.78 313.77">
  <defs>
    <style>
      .cls-1 {
        fill: #8d2d35;
      }

      .cls-2 {
        fill: #fff;
      }

      .cls-3 {
        fill: #f13e41;
      }

      .cls-4 {
        fill: #3a3a3a;
      }

      .cls-5 {
        fill: #495f7f;
      }

      .cls-6 {
        font-size: 12px;
      }

      .cls-26, .cls-6, .cls-9 {
        fill: #6d6e71;
      }

      .cls-26, .cls-6 {
        font-family: SegoeUI-Bold, Segoe UI;
        font-weight: 700;
      }

      .cls-7 {
        letter-spacing: -0.02em;
      }

      .cls-8 {
        letter-spacing: -0.02em;
      }

      .cls-9 {
        font-size: 10px;
        font-family: SegoeUI-Semilight, Segoe UI;
      }

      .cls-10 {
        letter-spacing: -0.09em;
      }

      .cls-11 {
        letter-spacing: -0.01em;
      }

      .cls-12 {
        letter-spacing: 0em;
      }

      .cls-13 {
        letter-spacing: -0.01em;
      }

      .cls-14 {
        letter-spacing: 0.04em;
      }

      .cls-15 {
        letter-spacing: -0.02em;
      }

      .cls-16 {
        letter-spacing: -0.02em;
      }

      .cls-17 {
        letter-spacing: -0.03em;
      }

      .cls-18 {
        letter-spacing: -0.01em;
      }

      .cls-19 {
        letter-spacing: -0.01em;
      }

      .cls-20 {
        letter-spacing: 0.01em;
      }

      .cls-21 {
        letter-spacing: -0.06em;
      }

      .cls-22 {
        fill: #d8d8d8;
      }

      .cls-23 {
        fill: #bcbcbc;
      }

      .cls-24 {
        opacity: 0.7;
      }

      .cls-25 {
        opacity: 0.12;
      }

      .cls-26 {
        font-size: 11px;
      }

      .cls-27 {
        letter-spacing: -0.07em;
      }

      .cls-28 {
        letter-spacing: -0.04em;
      }

      .cls-29 {
        fill: #d0fbfd;
      }

      .cls-30 {
        fill: #d7dffc;
      }

      .cls-31 {
        fill: #f1f3f5;
      }

      .cls-32 {
        fill: #355ff2;
      }

      .cls-33 {
        fill: #ffcd9c;
      }

      .cls-34 {
        fill: #869ff7;
      }

      .cls-35 {
        fill: #ffeab5;
      }

      .cls-36 {
        fill: #aebffa;
      }

      .cls-37 {
        fill: #1b3079;
      }

      .cls-38 {
        fill: #ffdb8a;
      }

      .cls-39 {
        fill: #545e73;
      }

      .cls-40 {
        fill: #38454f;
      }

      .cls-41 {
        fill: #556080;
      }

      .cls-42 {
        fill: #91bae1;
      }

      .cls-43 {
        fill: #8697cb;
      }

      .cls-44 {
        fill: #324a5e;
      }

      .cls-45 {
        fill: #2b3b4e;
      }
    </style>
  </defs>
  <title>Asset 3</title>
  <g id="Layer_2" data-name="Layer 2">
    <g id="section">
      <g>
        <path class="cls-1" d="M64,180.55a83.77,83.77,0,0,1,83.8-83.8,83.59,83.59,0,0,1,28.94,5.14l-11.1,8.56c9-1.36,21.3-.18,30.58,1.81-5.73-7.56-12-18.23-14.58-26.94l-3,13.46A83.81,83.81,0,0,0,72.71,117.52l.17-.37H1.21v79.12H65.5A84.22,84.22,0,0,1,64,180.55Z"/>
        <g>
          <path class="cls-2" d="M32.53,156.79q0,6.38-2.09,9.44A7.25,7.25,0,0,1,24,169.29a7.17,7.17,0,0,1-6.35-3.16q-2.14-3.16-2.14-9.34,0-6.44,2.08-9.5A7.22,7.22,0,0,1,24,144.24a7.18,7.18,0,0,1,6.37,3.2Q32.53,150.63,32.53,156.79Zm-11.9,0a18.93,18.93,0,0,0,.77,6.42,2.68,2.68,0,0,0,2.6,1.94,2.71,2.71,0,0,0,2.6-2,18.42,18.42,0,0,0,.8-6.39,18.37,18.37,0,0,0-.81-6.43,2.7,2.7,0,0,0-5.19,0A18.91,18.91,0,0,0,20.63,156.79Z"/>
          <path class="cls-2" d="M47.83,169H42.69V154.88l.05-2.31.08-2.53q-1.28,1.28-1.78,1.68L38.24,154l-2.48-3.1,7.84-6.24h4.23Z"/>
        </g>
        <path class="cls-3" d="M248.54,132.87a83.77,83.77,0,0,1-83.8,83.8,83.6,83.6,0,0,1-28.94-5.14L146.9,203c-9,1.36-21.3.18-30.58-1.81,5.73,7.56,12,18.23,14.58,26.94l3-13.46A83.81,83.81,0,0,0,239.86,195.9l-.17.36h71.66V117.15H247.07A84.22,84.22,0,0,1,248.54,132.87Z"/>
        <g>
          <path class="cls-2" d="M277.61,156.79q0,6.38-2.09,9.44a7.25,7.25,0,0,1-6.43,3.06,7.16,7.16,0,0,1-6.35-3.16q-2.14-3.16-2.14-9.34,0-6.44,2.08-9.5a8.09,8.09,0,0,1,12.78.14Q277.61,150.63,277.61,156.79Zm-11.9,0a18.93,18.93,0,0,0,.77,6.42,2.68,2.68,0,0,0,2.6,1.94,2.71,2.71,0,0,0,2.6-2,18.4,18.4,0,0,0,.8-6.39,18.38,18.38,0,0,0-.81-6.43,2.7,2.7,0,0,0-5.19,0A18.91,18.91,0,0,0,265.7,156.79Z"/>
          <path class="cls-2" d="M296.25,150.07a5.73,5.73,0,0,1-1.38,3.88,7.16,7.16,0,0,1-3.88,2.2v.1a7.75,7.75,0,0,1,4.46,1.79,5,5,0,0,1,1.51,3.84,6.5,6.5,0,0,1-2.55,5.47q-2.55,2-7.28,2a17.66,17.66,0,0,1-7-1.32V163.6a15.82,15.82,0,0,0,3.11,1.17,13.1,13.1,0,0,0,3.36.45,6.54,6.54,0,0,0,3.76-.86,3.18,3.18,0,0,0,1.22-2.78,2.51,2.51,0,0,0-1.4-2.43,10.35,10.35,0,0,0-4.46-.72h-1.85v-3.95h1.88a8.75,8.75,0,0,0,4.14-.74,2.67,2.67,0,0,0,1.31-2.54q0-2.76-3.46-2.76a7.91,7.91,0,0,0-2.44.4,11.92,11.92,0,0,0-2.76,1.38l-2.38-3.55a13.22,13.22,0,0,1,7.94-2.4,10.25,10.25,0,0,1,6,1.53A4.91,4.91,0,0,1,296.25,150.07Z"/>
        </g>
        <path class="cls-4" d="M132.43,64.45a83.77,83.77,0,0,1,83.8,83.8,83.6,83.6,0,0,1-5.14,28.94l-8.56-11.1c1.36,9,.18,21.3-1.81,30.58,7.56-5.73,18.23-12,26.94-14.58l-13.46-3A83.81,83.81,0,0,0,195.46,73.13l.36.17V1.64H116.71V65.93A84.23,84.23,0,0,1,132.43,64.45Z"/>
        <g>
          <path class="cls-2" d="M155.07,33q0,6.38-2.09,9.44a7.25,7.25,0,0,1-6.43,3.06,7.17,7.17,0,0,1-6.35-3.16q-2.14-3.16-2.14-9.34,0-6.44,2.08-9.5a8.09,8.09,0,0,1,12.78.14Q155.07,26.82,155.07,33Zm-11.9,0a18.93,18.93,0,0,0,.77,6.42,2.68,2.68,0,0,0,2.6,1.94,2.71,2.71,0,0,0,2.6-2,18.41,18.41,0,0,0,.8-6.39,18.37,18.37,0,0,0-.81-6.43,2.7,2.7,0,0,0-5.19,0A18.91,18.91,0,0,0,143.17,33Z"/>
          <path class="cls-2" d="M174.66,45.15h-17V41.57l6.11-6.18q2.71-2.78,3.55-3.85a8.46,8.46,0,0,0,1.2-2,5.06,5.06,0,0,0,.37-1.9,2.77,2.77,0,0,0-.81-2.18,3.13,3.13,0,0,0-2.16-.72,6.2,6.2,0,0,0-2.75.65,14.18,14.18,0,0,0-2.78,1.85l-2.8-3.31a18.27,18.27,0,0,1,3-2.16,11,11,0,0,1,2.58-1,13.24,13.24,0,0,1,3.13-.34,9.26,9.26,0,0,1,4,.83A6.42,6.42,0,0,1,173,23.62a6.19,6.19,0,0,1,1,3.43,8.41,8.41,0,0,1-.59,3.16,12.11,12.11,0,0,1-1.83,3,44.83,44.83,0,0,1-4.37,4.41l-3.13,2.95v.23h10.6Z"/>
        </g>
        <g>
          <path class="cls-5" d="M180.11,249a83.77,83.77,0,0,1-83.8-83.8,83.58,83.58,0,0,1,5.14-28.94l8.56,11.1c-1.36-9-.18-21.3,1.81-30.58-7.56,5.73-18.23,12-26.94,14.58l13.46,3a83.81,83.81,0,0,0,18.73,105.95l-.37-.17v71.66h79.12V247.49A84.22,84.22,0,0,1,180.11,249Z"/>
          <g>
            <path class="cls-2" d="M155.07,280.61q0,6.38-2.09,9.44a7.25,7.25,0,0,1-6.43,3.06,7.17,7.17,0,0,1-6.35-3.16q-2.14-3.16-2.14-9.34,0-6.44,2.08-9.5a8.09,8.09,0,0,1,12.78.14Q155.07,274.45,155.07,280.61Zm-11.9,0a18.94,18.94,0,0,0,.77,6.42,2.68,2.68,0,0,0,2.6,1.94,2.71,2.71,0,0,0,2.6-2,26,26,0,0,0,0-12.83,2.7,2.7,0,0,0-5.19,0A18.91,18.91,0,0,0,143.17,280.61Z"/>
            <path class="cls-2" d="M175.21,287.73h-2.93v5h-5v-5H156.87v-3.58l10.67-15.71h4.74v15.3h2.93Zm-8-4v-4.13q0-1,.08-3t.13-2.28h-.13a18.6,18.6,0,0,1-1.48,2.66l-4.46,6.74Z"/>
          </g>
        </g>
        <text class="cls-6" transform="translate(0 10.88)">UP<tspan class="cls-7" x="16.05" y="0">L</tspan><tspan class="cls-8" x="21.88" y="0">O</tspan><tspan x="30.8" y="0">AD</tspan></text>
        <text class="cls-9" transform="translate(1.24 25.66)"><tspan class="cls-10">Y</tspan><tspan x="4.58" y="0">our files </tspan><tspan class="cls-11" x="41.31" y="0">t</tspan><tspan x="44.41" y="0">o </tspan><tspan class="cls-12" x="52.88" y="0">y</tspan><tspan x="57.51" y="0">our b</tspan><tspan class="cls-13" x="80.62" y="0">r</tspan><tspan x="83.88" y="0">owser </tspan><tspan x="0" y="12">and the enc</tspan><tspan class="cls-14" x="50.72" y="12">r</tspan><tspan x="54.51" y="12">yption </tspan><tspan x="0" y="24">p</tspan><tspan class="cls-13" x="5.74" y="24">r</tspan><tspan x="8.99" y="24" xml:space="preserve">ocess will begin  </tspan></text>
        <text class="cls-6" transform="translate(0.21 271.59) scale(0.99 1)">DOWN<tspan class="cls-15" x="39.49" y="0">L</tspan><tspan class="cls-16" x="45.32" y="0">O</tspan><tspan x="54.24" y="0">AD</tspan></text>
        <text class="cls-9" transform="translate(0.3 285.36)"><tspan class="cls-17">R</tspan><tspan x="5.49" y="0">ecipient downl</tspan><tspan class="cls-13" x="68.13" y="0">o</tspan><tspan x="73.73" y="0">ads the </tspan><tspan x="0" y="12">file, and dec</tspan><tspan class="cls-14" x="51.88" y="12">r</tspan><tspan x="55.67" y="12">ypts it with </tspan><tspan class="cls-12" x="0" y="24">y</tspan><tspan x="4.63" y="24">our sec</tspan><tspan class="cls-13" x="35.73" y="24">r</tspan><tspan x="38.98" y="24">et URL hash.</tspan></text>
        <text class="cls-6" transform="translate(236.88 10.2)">ENC<tspan class="cls-18" x="23.36" y="0">R</tspan><tspan x="31.07" y="0">YPTION</tspan></text>
        <text class="cls-9" transform="translate(215.97 25.98)"><tspan class="cls-10">Y</tspan><tspan x="4.58" y="0">our b</tspan><tspan class="cls-13" x="27.69" y="0">r</tspan><tspan x="30.95" y="0">owser enc</tspan><tspan class="cls-14" x="74.17" y="0">r</tspan><tspan x="77.96" y="0">ypts </tspan><tspan x="0.09" y="12">the file and </tspan><tspan class="cls-13" x="50.93" y="12">r</tspan><tspan x="54.19" y="12">edi</tspan><tspan class="cls-13" x="67.3" y="12">r</tspan><tspan x="70.56" y="12">ects it </tspan><tspan class="cls-11" x="34.24" y="24">t</tspan><tspan x="37.34" y="24">o our se</tspan><tspan class="cls-14" x="72.38" y="24">r</tspan><tspan class="cls-19" x="76.17" y="24">v</tspan><tspan x="80.77" y="24">e</tspan><tspan class="cls-20" x="85.91" y="24">r</tspan><tspan x="89.37" y="24">s.</tspan></text>
        <text class="cls-6" transform="translate(268.07 272.07)">SERVER</text>
        <text class="cls-9" transform="translate(214.63 285.84)">The enc<tspan class="cls-14" x="33.72" y="0">r</tspan><tspan x="37.51" y="0">yp</tspan><tspan class="cls-11" x="47.93" y="0">t</tspan><tspan x="51.03" y="0">ed files a</tspan><tspan class="cls-13" x="89.01" y="0">r</tspan><tspan x="92.27" y="0">e </tspan><tspan x="-1.39" y="12">sent </tspan><tspan class="cls-11" x="19.23" y="12">t</tspan><tspan x="22.33" y="12">o our se</tspan><tspan class="cls-14" x="57.37" y="12">r</tspan><tspan class="cls-19" x="61.16" y="12">v</tspan><tspan x="65.76" y="12">e</tspan><tspan class="cls-20" x="70.89" y="12">r</tspan><tspan x="74.35" y="12">s and </tspan><tspan x="41.99" y="24">s</tspan><tspan class="cls-11" x="46.05" y="24">t</tspan><tspan x="49.16" y="24">o</tspan><tspan class="cls-13" x="54.89" y="24">r</tspan><tspan x="58.14" y="24">ed safel</tspan><tspan class="cls-21" x="91.15" y="24">y</tspan><tspan x="95.21" y="24">.</tspan></text>
        <g>
          <path d="M66.71,105.45V63.36a1.81,1.81,0,0,0-1.79-1.83H9A1.81,1.81,0,0,0,7.2,63.36v42.09Z"/>
          <rect class="cls-22" x="1.24" y="105.45" width="71.43" height="1.22"/>
          <polygon class="cls-23" points="69.1 109.11 4.81 109.11 1.24 106.67 72.67 106.67 69.1 109.11"/>
          <g class="cls-24">
            <path class="cls-2" d="M43,105.45h-12a1.42,1.42,0,0,0,1.37,1.22h9.26A1.42,1.42,0,0,0,43,105.45Z"/>
          </g>
          <g class="cls-25">
            <rect class="cls-2" x="9.08" y="64.05" width="2.23" height="2.29"/>
            <rect class="cls-2" x="13.94" y="64.05" width="2.23" height="2.29"/>
            <rect class="cls-2" x="18.81" y="64.05" width="2.23" height="2.29"/>
            <rect class="cls-2" x="23.67" y="64.05" width="2.23" height="2.29"/>
            <rect class="cls-2" x="28.54" y="64.05" width="2.23" height="2.29"/>
            <rect class="cls-2" x="33.4" y="64.05" width="2.23" height="2.29"/>
            <rect class="cls-2" x="38.27" y="64.05" width="2.23" height="2.29"/>
            <rect class="cls-2" x="43.14" y="64.05" width="2.23" height="2.29"/>
            <rect class="cls-2" x="48" y="64.05" width="2.23" height="2.29"/>
            <rect class="cls-2" x="52.87" y="64.05" width="2.23" height="2.29"/>
            <rect class="cls-2" x="57.73" y="64.05" width="2.23" height="2.29"/>
            <rect class="cls-2" x="62.6" y="64.05" width="2.23" height="2.29"/>
            <rect class="cls-2" x="9.08" y="68.62" width="2.23" height="2.29"/>
            <rect class="cls-2" x="13.94" y="68.62" width="2.23" height="2.29"/>
            <rect class="cls-2" x="18.81" y="68.62" width="2.23" height="2.29"/>
            <rect class="cls-2" x="23.67" y="68.62" width="2.23" height="2.29"/>
            <rect class="cls-2" x="28.54" y="68.62" width="2.23" height="2.29"/>
            <rect class="cls-2" x="33.4" y="68.62" width="2.23" height="2.29"/>
            <rect class="cls-2" x="38.27" y="68.62" width="2.23" height="2.29"/>
            <rect class="cls-2" x="43.14" y="68.62" width="2.23" height="2.29"/>
            <rect class="cls-2" x="48" y="68.62" width="2.23" height="2.29"/>
            <rect class="cls-2" x="52.87" y="68.62" width="2.23" height="2.29"/>
            <rect class="cls-2" x="57.73" y="68.62" width="2.23" height="2.29"/>
            <rect class="cls-2" x="62.6" y="68.62" width="2.23" height="2.29"/>
            <rect class="cls-2" x="9.08" y="73.2" width="2.23" height="2.29"/>
            <rect class="cls-2" x="13.94" y="73.2" width="2.23" height="2.29"/>
            <rect class="cls-2" x="18.81" y="73.2" width="2.23" height="2.29"/>
            <rect class="cls-2" x="23.67" y="73.2" width="2.23" height="2.29"/>
            <rect class="cls-2" x="28.54" y="73.2" width="2.23" height="2.29"/>
            <rect class="cls-2" x="33.4" y="73.2" width="2.23" height="2.29"/>
            <rect class="cls-2" x="38.27" y="73.2" width="2.23" height="2.29"/>
            <rect class="cls-2" x="43.14" y="73.2" width="2.23" height="2.29"/>
            <rect class="cls-2" x="48" y="73.2" width="2.23" height="2.29"/>
            <rect class="cls-2" x="52.87" y="73.2" width="2.23" height="2.29"/>
            <rect class="cls-2" x="57.73" y="73.2" width="2.23" height="2.29"/>
            <rect class="cls-2" x="62.6" y="73.2" width="2.23" height="2.29"/>
            <rect class="cls-2" x="9.08" y="77.77" width="2.23" height="2.29"/>
            <rect class="cls-2" x="13.94" y="77.77" width="2.23" height="2.29"/>
            <rect class="cls-2" x="18.81" y="77.77" width="2.23" height="2.29"/>
            <rect class="cls-2" x="23.67" y="77.77" width="2.23" height="2.29"/>
            <rect class="cls-2" x="28.54" y="77.77" width="2.23" height="2.29"/>
            <rect class="cls-2" x="33.4" y="77.77" width="2.23" height="2.29"/>
            <rect class="cls-2" x="38.27" y="77.77" width="2.23" height="2.29"/>
            <rect class="cls-2" x="43.14" y="77.77" width="2.23" height="2.29"/>
            <rect class="cls-2" x="48" y="77.77" width="2.23" height="2.29"/>
            <rect class="cls-2" x="52.87" y="77.77" width="2.23" height="2.29"/>
            <rect class="cls-2" x="57.73" y="77.77" width="2.23" height="2.29"/>
            <rect class="cls-2" x="62.6" y="77.77" width="2.23" height="2.29"/>
            <rect class="cls-2" x="9.08" y="82.35" width="2.23" height="2.29"/>
            <rect class="cls-2" x="13.94" y="82.35" width="2.23" height="2.29"/>
            <rect class="cls-2" x="18.81" y="82.35" width="2.23" height="2.29"/>
            <rect class="cls-2" x="23.67" y="82.35" width="2.23" height="2.29"/>
            <rect class="cls-2" x="28.54" y="82.35" width="2.23" height="2.29"/>
            <rect class="cls-2" x="33.4" y="82.35" width="2.23" height="2.29"/>
            <rect class="cls-2" x="38.27" y="82.35" width="2.23" height="2.29"/>
            <rect class="cls-2" x="43.14" y="82.35" width="2.23" height="2.29"/>
            <rect class="cls-2" x="48" y="82.35" width="2.23" height="2.29"/>
            <rect class="cls-2" x="52.87" y="82.35" width="2.23" height="2.29"/>
            <rect class="cls-2" x="57.73" y="82.35" width="2.23" height="2.29"/>
            <rect class="cls-2" x="62.6" y="82.35" width="2.23" height="2.29"/>
            <rect class="cls-2" x="9.08" y="86.92" width="2.23" height="2.29"/>
            <rect class="cls-2" x="13.94" y="86.92" width="2.23" height="2.29"/>
            <rect class="cls-2" x="18.81" y="86.92" width="2.23" height="2.29"/>
            <rect class="cls-2" x="23.67" y="86.92" width="2.23" height="2.29"/>
            <rect class="cls-2" x="28.54" y="86.92" width="2.23" height="2.29"/>
            <rect class="cls-2" x="33.4" y="86.92" width="2.23" height="2.29"/>
            <rect class="cls-2" x="38.27" y="86.92" width="2.23" height="2.29"/>
            <rect class="cls-2" x="43.14" y="86.92" width="2.23" height="2.29"/>
            <rect class="cls-2" x="48" y="86.92" width="2.23" height="2.29"/>
            <rect class="cls-2" x="52.87" y="86.92" width="2.23" height="2.29"/>
            <rect class="cls-2" x="57.73" y="86.92" width="2.23" height="2.29"/>
            <rect class="cls-2" x="62.6" y="86.92" width="2.23" height="2.29"/>
            <rect class="cls-2" x="9.08" y="91.5" width="2.23" height="2.29"/>
            <rect class="cls-2" x="13.94" y="91.5" width="2.23" height="2.29"/>
            <rect class="cls-2" x="18.81" y="91.5" width="2.23" height="2.29"/>
            <rect class="cls-2" x="23.67" y="91.5" width="2.23" height="2.29"/>
            <rect class="cls-2" x="28.54" y="91.5" width="2.23" height="2.29"/>
            <rect class="cls-2" x="33.4" y="91.5" width="2.23" height="2.29"/>
            <rect class="cls-2" x="38.27" y="91.5" width="2.23" height="2.29"/>
            <rect class="cls-2" x="43.14" y="91.5" width="2.23" height="2.29"/>
            <rect class="cls-2" x="48" y="91.5" width="2.23" height="2.29"/>
            <rect class="cls-2" x="52.87" y="91.5" width="2.23" height="2.29"/>
            <rect class="cls-2" x="57.73" y="91.5" width="2.23" height="2.29"/>
            <rect class="cls-2" x="62.6" y="91.5" width="2.23" height="2.29"/>
            <rect class="cls-2" x="9.08" y="96.07" width="2.23" height="2.29"/>
            <rect class="cls-2" x="13.94" y="96.07" width="2.23" height="2.29"/>
            <rect class="cls-2" x="18.81" y="96.07" width="2.23" height="2.29"/>
            <rect class="cls-2" x="23.67" y="96.07" width="2.23" height="2.29"/>
            <rect class="cls-2" x="28.54" y="96.07" width="2.23" height="2.29"/>
            <rect class="cls-2" x="33.4" y="96.07" width="2.23" height="2.29"/>
            <rect class="cls-2" x="38.27" y="96.07" width="2.23" height="2.29"/>
            <rect class="cls-2" x="43.14" y="96.07" width="2.23" height="2.29"/>
            <rect class="cls-2" x="48" y="96.07" width="2.23" height="2.29"/>
            <rect class="cls-2" x="52.87" y="96.07" width="2.23" height="2.29"/>
            <rect class="cls-2" x="57.73" y="96.07" width="2.23" height="2.29"/>
            <rect class="cls-2" x="62.6" y="96.07" width="2.23" height="2.29"/>
            <rect class="cls-2" x="9.08" y="100.65" width="2.23" height="2.29"/>
            <rect class="cls-2" x="13.94" y="100.65" width="2.23" height="2.29"/>
            <rect class="cls-2" x="18.81" y="100.65" width="2.23" height="2.29"/>
            <rect class="cls-2" x="23.67" y="100.65" width="2.23" height="2.29"/>
            <rect class="cls-2" x="28.54" y="100.65" width="2.23" height="2.29"/>
            <rect class="cls-2" x="33.4" y="100.65" width="2.23" height="2.29"/>
            <rect class="cls-2" x="38.27" y="100.65" width="2.23" height="2.29"/>
            <rect class="cls-2" x="43.14" y="100.65" width="2.23" height="2.29"/>
            <rect class="cls-2" x="48" y="100.65" width="2.23" height="2.29"/>
            <rect class="cls-2" x="52.87" y="100.65" width="2.23" height="2.29"/>
            <rect class="cls-2" x="57.73" y="100.65" width="2.23" height="2.29"/>
            <rect class="cls-2" x="62.6" y="100.65" width="2.23" height="2.29"/>
          </g>
          <path class="cls-3" d="M49.8,95.55H24.1a3.26,3.26,0,0,1-3.21-3.29V74.72a3.26,3.26,0,0,1,3.21-3.29H49.8A3.26,3.26,0,0,1,53,74.72V92.26A3.26,3.26,0,0,1,49.8,95.55Z"/>
          <polygon class="cls-2" points="30.68 89.23 34.96 84.76 34.96 95.55 38.95 95.55 38.95 84.76 43.23 89.23 46.08 86.38 36.95 76.85 27.83 86.38 30.68 89.23"/>
        </g>
        <text class="cls-26" transform="translate(117.98 154.69)">SENSITIVE <tspan class="cls-8" x="56.52" y="0">D</tspan><tspan class="cls-27" x="64.46" y="0">AT</tspan><tspan x="77.11" y="0">A </tspan><tspan x="8.49" y="13.2">P</tspan><tspan class="cls-18" x="15.25" y="13.2">R</tspan><tspan class="cls-28" x="22.32" y="13.2">O</tspan><tspan x="30.22" y="13.2">TECTION</tspan></text>
        <g>
          <path class="cls-3" d="M287.65,61.84a23.57,23.57,0,0,0-6.14,46.33l28.9-28.9A23.58,23.58,0,0,0,287.65,61.84Z"/>
          <path class="cls-1" d="M275.35,102l6.16,6.16A23.58,23.58,0,0,0,310.4,79.27L299.94,68.81l-3,2.31-2.31-2.31-3,2.37-2.37-2.37-2.7,2.63L284,68.81l-2.74,2.59-2.59-2.59-3.28,3.28,2.51,2.51-2.51,2.82L278,80.1Z"/>
          <polygon class="cls-29" points="299.94 79.46 299.94 95.86 295.84 97.91 293.8 102 287.65 102 283.55 92.37 287.65 81.72 289.29 82.74 291.34 82.74 291.34 79.46 299.94 79.46"/>
          <polygon class="cls-2" points="287.65 81.72 287.65 102 275.35 102 275.35 82.74 276.99 81.72 278.63 82.74 280.68 82.74 282.32 81.72 283.96 82.74 286.01 82.74 287.65 81.72"/>
          <polygon class="cls-30" points="293.8 95.86 293.8 102 299.94 95.86 293.8 95.86"/>
          <g>
            <rect class="cls-31" x="275.35" y="68.81" width="3.28" height="3.28"/>
            <rect class="cls-31" x="280.68" y="68.81" width="3.28" height="3.28"/>
            <rect class="cls-31" x="291.34" y="68.81" width="3.28" height="3.28"/>
          </g>
          <rect class="cls-29" x="296.66" y="68.81" width="3.28" height="3.28"/>
          <polygon class="cls-5" points="289.29 68.81 289.29 72.09 287.65 72.09 286.62 70.45 287.65 68.81 289.29 68.81"/>
          <rect class="cls-32" x="286.01" y="68.81" width="1.64" height="3.28"/>
          <rect class="cls-33" x="275.35" y="74.14" width="3.28" height="3.28"/>
          <rect class="cls-34" x="280.68" y="74.14" width="3.28" height="3.28"/>
          <rect class="cls-35" x="291.34" y="74.14" width="3.28" height="3.28"/>
          <rect class="cls-5" x="296.66" y="74.14" width="3.28" height="3.28"/>
          <polygon class="cls-5" points="289.29 74.14 289.29 77.42 287.65 77.42 286.62 75.78 287.65 74.14 289.29 74.14"/>
          <rect class="cls-32" x="286.01" y="74.14" width="1.64" height="3.28"/>
          <rect class="cls-36" x="275.35" y="79.46" width="3.28" height="3.28"/>
          <rect class="cls-35" x="280.68" y="79.46" width="3.28" height="3.28"/>
          <rect class="cls-5" x="291.34" y="84.79" width="3.28" height="3.28"/>
          <polygon class="cls-37" points="289.29 79.46 289.29 82.74 287.65 82.74 286.62 81.1 287.65 79.46 289.29 79.46"/>
          <rect class="cls-32" x="286.01" y="79.46" width="1.64" height="3.28"/>
          <rect class="cls-33" x="280.68" y="84.79" width="3.28" height="3.28"/>
          <rect class="cls-36" x="280.68" y="90.12" width="3.28" height="3.28"/>
          <polygon class="cls-38" points="289.29 84.79 289.29 88.07 287.65 88.07 286.62 86.43 287.65 84.79 289.29 84.79"/>
          <rect class="cls-35" x="286.01" y="84.79" width="1.64" height="3.28"/>
        </g>
        <g>
          <g>
            <path class="cls-39" d="M307.54,213.18h0c-.6-3.66-9.17-6.57-19.66-6.57s-19.06,2.9-19.66,6.57h0v30.37h0c.6,3.66,9.17,6.57,19.66,6.57s19.06-2.9,19.66-6.57h0V213.18Z"/>
            <g>
              <path class="cls-40" d="M287.88,240.26c-10.88,0-19.7-3.12-19.7-7v10.26h0c.6,3.66,9.17,6.57,19.66,6.57s19.06-2.9,19.66-6.57h0V233.29C307.57,237.14,298.75,240.26,287.88,240.26Z"/>
              <path class="cls-40" d="M268.18,232.88v.41a2.55,2.55,0,0,1,0-.41Z"/>
              <path class="cls-40" d="M307.54,232.88a2.55,2.55,0,0,1,0,.41v-.41Z"/>
            </g>
            <g>
              <path class="cls-41" d="M287.88,230.42c-10.88,0-19.7-3.12-19.7-7V233.7h0c.6,3.66,9.17,6.57,19.66,6.57s19.06-2.9,19.66-6.57h0V223.44C307.57,227.29,298.75,230.42,287.88,230.42Z"/>
              <path class="cls-41" d="M268.18,223v.41a2.55,2.55,0,0,1,0-.41Z"/>
              <path class="cls-41" d="M307.54,223a2.55,2.55,0,0,1,0,.41V223Z"/>
            </g>
            <ellipse class="cls-42" cx="287.88" cy="213.59" rx="19.7" ry="6.98"/>
            <g>
              <path class="cls-43" d="M287.88,220.57c-10.88,0-19.7-3.12-19.7-7v10.26h0c.6,3.66,9.17,6.57,19.66,6.57s19.06-2.9,19.66-6.57h0V213.59C307.57,217.44,298.75,220.57,287.88,220.57Z"/>
              <path class="cls-43" d="M268.18,213.18v.41a2.55,2.55,0,0,1,0-.41Z"/>
              <path class="cls-43" d="M307.54,213.18a2.55,2.55,0,0,1,0,.41v-.41Z"/>
            </g>
          </g>
          <g>
            <rect class="cls-32" x="293.62" y="233.7" width="18.06" height="18.06"/>
            <rect class="cls-2" x="301.83" y="238.62" width="1.64" height="13.13"/>
            <polygon class="cls-2" points="306.99 244.13 302.65 239.78 298.31 244.13 297.14 242.97 302.65 237.46 308.15 242.97 306.99 244.13"/>
          </g>
        </g>
        <g>
          <circle class="cls-31" cx="23.54" cy="229.12" r="22.54"/>
          <path class="cls-44" d="M28.36,231.14l-1.87-1.87a8.22,8.22,0,1,0-2.79,2.79l1.87,1.87Z"/>
          <circle class="cls-2" cx="19.46" cy="225.04" r="6.5"/>
          <path class="cls-45" d="M25,234.51l6,6a2.77,2.77,0,0,0,3.92,0h0a2.77,2.77,0,0,0,0-3.92l-6-6Z"/>
          <g>
            <path class="cls-3" d="M15.34,225.21l.41-1.35h.55l.41,1.35.47-1.35h.57l-.82,2.35h-.39L16,224.58l-.51,1.63h-.39l-.82-2.35h.57Z"/>
            <path class="cls-3" d="M18.76,225.21l.41-1.35h.55l.41,1.35.47-1.35h.57l-.82,2.35H20l-.51-1.63-.51,1.63h-.39l-.82-2.35h.57Z"/>
            <path class="cls-3" d="M22.19,225.21l.41-1.35h.55l.41,1.35.47-1.35h.57l-.82,2.35H23.4l-.51-1.63-.51,1.63H22l-.82-2.35h.57Z"/>
          </g>
        </g>
      </g>
    </g>
  </g>
</svg>
